<svg width="187" height="150" viewBox="0 0 187 150" fill="none" xmlns="http://www.w3.org/2000/svg">
<path d="M75 150C116.421 150 150 116.421 150 75C150 33.5786 116.421 0 75 0C33.5786 0 0 33.5786 0 75C0 116.421 33.5786 150 75 150Z" fill="url(#paint0_linear_546_4661)"/>
<g filter="url(#filter0_d_546_4661)">
<path d="M41 34H176C177.326 34 178.598 34.5268 179.536 35.4645C180.473 36.4021 181 37.6739 181 39V64C181 65.3261 180.473 66.5979 179.536 67.5355C178.598 68.4732 177.326 69 176 69H41C39.6739 69 38.4021 68.4732 37.4645 67.5355C36.5268 66.5979 36 65.3261 36 64V39C36 37.6739 36.5268 36.4021 37.4645 35.4645C38.4021 34.5268 39.6739 34 41 34V34Z" fill="white"/>
</g>
<path d="M105 42H79C77.3431 42 76 43.3431 76 45C76 46.6569 77.3431 48 79 48H105C106.657 48 108 46.6569 108 45C108 43.3431 106.657 42 105 42Z" fill="#B4DAFF"/>
<path d="M123 55H79C77.3431 55 76 56.3431 76 58C76 59.6569 77.3431 61 79 61H123C124.657 61 126 59.6569 126 58C126 56.3431 124.657 55 123 55Z" fill="#DEE9FC"/>
<path d="M68 51.5C68 43.4919 61.5081 37 53.5 37C45.4919 37 39 43.4919 39 51.5C39 59.5081 45.4919 66 53.5 66C61.5081 66 68 59.5081 68 51.5Z" fill="#3056D3"/>
<path d="M52.6002 56.194C53.8415 56.1938 55.0472 55.7785 56.0252 55.014L59.1002 58.089L60.0892 57.1L57.0132 54.024C57.786 53.0248 58.1977 51.7933 58.181 50.5303C58.1643 49.2672 57.7203 48.047 56.9214 47.0685C56.1225 46.0901 55.0157 45.4111 53.7815 45.1422C52.5473 44.8732 51.2583 45.0303 50.1248 45.5877C48.9912 46.1451 48.0799 47.07 47.5393 48.2116C46.9987 49.3533 46.8607 50.6444 47.1478 51.8745C47.4349 53.1046 48.1301 54.2013 49.1203 54.9857C50.1104 55.7701 51.337 56.196 52.6002 56.194ZM52.6002 46.4C53.4309 46.4 54.2429 46.6463 54.9336 47.1078C55.6243 47.5693 56.1626 48.2253 56.4805 48.9927C56.7984 49.7602 56.8816 50.6047 56.7195 51.4194C56.5574 52.2341 56.1574 52.9825 55.5701 53.5699C54.9827 54.1572 54.2343 54.5572 53.4196 54.7193C52.6049 54.8814 51.7604 54.7982 50.9929 54.4803C50.2255 54.1624 49.5695 53.6241 49.108 52.9334C48.6465 52.2427 48.4002 51.4307 48.4002 50.6C48.4002 49.4861 48.8427 48.4178 49.6304 47.6302C50.418 46.8425 51.4863 46.4 52.6002 46.4Z" fill="white"/>
<g filter="url(#filter1_d_546_4661)">
<path d="M161 79H26C23.2386 79 21 81.2386 21 84V109C21 111.761 23.2386 114 26 114H161C163.761 114 166 111.761 166 109V84C166 81.2386 163.761 79 161 79Z" fill="white"/>
</g>
<path d="M90 87H64C62.3431 87 61 88.3431 61 90C61 91.6569 62.3431 93 64 93H90C91.6569 93 93 91.6569 93 90C93 88.3431 91.6569 87 90 87Z" fill="#B4DAFF"/>
<path d="M108 100H64C62.3431 100 61 101.343 61 103C61 104.657 62.3431 106 64 106H108C109.657 106 111 104.657 111 103C111 101.343 109.657 100 108 100Z" fill="#DEE9FC"/>
<path d="M53 96.5C53 88.4919 46.5081 82 38.5 82C30.4919 82 24 88.4919 24 96.5C24 104.508 30.4919 111 38.5 111C46.5081 111 53 104.508 53 96.5Z" fill="#3056D3"/>
<path d="M37.6002 101.194C38.8415 101.194 40.0472 100.778 41.0252 100.014L44.1002 103.089L45.0892 102.1L42.0132 99.024C42.786 98.0248 43.1977 96.7933 43.181 95.5303C43.1643 94.2672 42.7203 93.047 41.9214 92.0685C41.1225 91.0901 40.0157 90.4111 38.7815 90.1422C37.5473 89.8732 36.2583 90.0303 35.1248 90.5877C33.9912 91.1451 33.0799 92.07 32.5393 93.2116C31.9987 94.3533 31.8607 95.6444 32.1478 96.8745C32.4349 98.1046 33.1301 99.2013 34.1203 99.9857C35.1104 100.77 36.337 101.196 37.6002 101.194ZM37.6002 91.4C38.4309 91.4 39.2429 91.6463 39.9336 92.1078C40.6243 92.5693 41.1626 93.2253 41.4805 93.9927C41.7984 94.7602 41.8816 95.6047 41.7195 96.4194C41.5574 97.2341 41.1574 97.9825 40.5701 98.5699C39.9827 99.1572 39.2343 99.5572 38.4196 99.7193C37.6049 99.8814 36.7604 99.7982 35.9929 99.4803C35.2255 99.1624 34.5695 98.6241 34.108 97.9334C33.6465 97.2427 33.4002 96.4307 33.4002 95.6C33.4002 94.4861 33.8427 93.4178 34.6304 92.6302C35.418 91.8425 36.4863 91.4 37.6002 91.4Z" fill="white"/>
<defs>
<filter id="filter0_d_546_4661" x="30" y="31" width="157" height="47" filterUnits="userSpaceOnUse" color-interpolation-filters="sRGB">
<feFlood flood-opacity="0" result="BackgroundImageFix"/>
<feColorMatrix in="SourceAlpha" type="matrix" values="0 0 0 0 0 0 0 0 0 0 0 0 0 0 0 0 0 0 127 0" result="hardAlpha"/>
<feOffset dy="3"/>
<feGaussianBlur stdDeviation="3"/>
<feColorMatrix type="matrix" values="0 0 0 0 0 0 0 0 0 0 0 0 0 0 0 0 0 0 0.161 0"/>
<feBlend mode="normal" in2="BackgroundImageFix" result="effect1_dropShadow_546_4661"/>
<feBlend mode="normal" in="SourceGraphic" in2="effect1_dropShadow_546_4661" result="shape"/>
</filter>
<filter id="filter1_d_546_4661" x="15" y="76" width="157" height="47" filterUnits="userSpaceOnUse" color-interpolation-filters="sRGB">
<feFlood flood-opacity="0" result="BackgroundImageFix"/>
<feColorMatrix in="SourceAlpha" type="matrix" values="0 0 0 0 0 0 0 0 0 0 0 0 0 0 0 0 0 0 127 0" result="hardAlpha"/>
<feOffset dy="3"/>
<feGaussianBlur stdDeviation="3"/>
<feColorMatrix type="matrix" values="0 0 0 0 0 0 0 0 0 0 0 0 0 0 0 0 0 0 0.161 0"/>
<feBlend mode="normal" in2="BackgroundImageFix" result="effect1_dropShadow_546_4661"/>
<feBlend mode="normal" in="SourceGraphic" in2="effect1_dropShadow_546_4661" result="shape"/>
</filter>
<linearGradient id="paint0_linear_546_4661" x1="75" y1="0" x2="75" y2="150" gradientUnits="userSpaceOnUse">
<stop stop-color="#E3ECFA"/>
<stop offset="1" stop-color="#DAE7FF"/>
</linearGradient>
</defs>
</svg>
